<svg xmlns="http://www.w3.org/2000/svg" viewBox="0 0 320 64" fill="none" width="100%" height="100%">
  <defs>
    <linearGradient id="logoShieldGradDark" x1="0%" y1="0%" x2="100%" y2="100%">
      <stop offset="0%" stop-color="#1E293B"/>
      <stop offset="100%" stop-color="#0F172A"/>
    </linearGradient>
    <linearGradient id="logoBoltGradDark" x1="0%" y1="0%" x2="100%" y2="100%">
      <stop offset="0%" stop-color="#FDE047"/>
      <stop offset="50%" stop-color="#F59E0B"/>
      <stop offset="100%" stop-color="#D97706"/>
    </linearGradient>
  </defs>

  <!-- Logo Mark (Shield & Lightning) -->
  <g transform="translate(6, 6) scale(0.8125)">
    <path d="M32 4L12 12V28C12 43 21 54 32 60C43 54 52 43 52 28V12L32 4Z" fill="url(#logoShieldGradDark)" stroke="#38BDF8" stroke-width="1.5" stroke-linejoin="round"/>
    <path d="M22 24H26V32" stroke="#60A5FA" stroke-width="1.2" stroke-linecap="round" opacity="0.8"/>
    <circle cx="22" cy="24" r="1.5" fill="#60A5FA"/>
    <path d="M42 24H38V32" stroke="#60A5FA" stroke-width="1.2" stroke-linecap="round" opacity="0.8"/>
    <circle cx="42" cy="24" r="1.5" fill="#60A5FA"/>
    <path d="M35 14L22 33H33L28 50L44 29H33L38 14H35Z" fill="url(#logoBoltGradDark)"/>
  </g>

  <!-- Typography: Primary Business Name for Dark Backgrounds -->
  <text x="66" y="29" fill="#FFFFFF" font-family="system-ui, -apple-system, 'Segoe UI', Roboto, sans-serif" font-size="18" font-weight="900" letter-spacing="-0.4">
    PRABHUNATH
  </text>
  <!-- Subtitle Tag -->
  <text x="66" y="47" fill="#93C5FD" font-family="system-ui, -apple-system, 'Segoe UI', Roboto, sans-serif" font-size="11.5" font-weight="700" letter-spacing="1.2">
    ELECTRICALS &amp; CONTRACTOR
  </text>
  <!-- Location Pill -->
  <rect x="238" y="16" width="76" height="18" rx="9" fill="#1E293B" stroke="#475569" stroke-width="1"/>
  <text x="276" y="29" fill="#F8FAFC" font-family="system-ui, -apple-system, 'Segoe UI', Roboto, sans-serif" font-size="9.5" font-weight="700" text-anchor="middle" letter-spacing="0.4">
    GURUGRAM
  </text>
</svg>
